<svg width="166" height="54" viewBox="0 0 166 54" fill="none" xmlns="http://www.w3.org/2000/svg">
<g clip-path="url(#clip0_70_987)">
<path d="M103.333 15.2026L101.845 18.2421H95.5429V38.8364H92.3904V18.2421H86.2505L87.7378 15.2026H103.333Z" fill="#171923"/>
<path d="M108.382 21.0195C109.465 19.1678 110.921 17.6922 112.751 16.59C114.581 15.4904 116.579 14.938 118.747 14.938C120.915 14.938 122.884 15.4878 124.724 16.59C126.565 17.6896 128.031 19.1678 129.127 21.0195C130.22 22.8712 130.766 24.8785 130.766 27.0337C130.766 29.1888 130.225 31.2298 129.142 33.0815C128.057 34.9332 126.59 36.4011 124.74 37.4773C122.886 38.5562 120.889 39.0956 118.747 39.0956C116.605 39.0956 114.576 38.5614 112.736 37.4929C110.895 36.427 109.439 34.9721 108.367 33.1282C107.294 31.2868 106.758 29.2536 106.758 27.0311C106.758 24.8085 107.299 22.8686 108.382 21.0169V21.0195ZM111.176 31.5462C111.955 32.9207 113.022 34.0099 114.378 34.8139C115.731 35.6204 117.21 36.025 118.814 36.025C120.417 36.025 121.884 35.6282 123.216 34.832C124.546 34.0359 125.598 32.9466 126.369 31.5643C127.137 30.1795 127.524 28.6701 127.524 27.0362C127.524 25.4024 127.134 23.8878 126.353 22.4926C125.575 21.0973 124.513 19.9977 123.17 19.1912C121.827 18.3846 120.353 17.9827 118.752 17.9827C117.151 17.9827 115.677 18.3924 114.334 19.2093C112.991 20.0263 111.934 21.1336 111.166 22.5289C110.398 23.9242 110.011 25.4387 110.011 27.0726C110.011 28.7064 110.4 30.1795 111.181 31.5514L111.176 31.5462Z" fill="#171923"/>
<path d="M141.528 25.893L141.917 25.2732L151.534 15.2056H155.597L145.882 25.3406L156.148 38.8419H152.153L143.575 27.3687L141.592 29.2956L141.626 38.8419H138.409V16.702L141.626 15.2056V24.7182L141.528 25.8956V25.893Z" fill="#171923"/>
<path d="M166 15.2023V38.8361H162.848V16.6961L166 15.1997V15.2023Z" fill="#171923"/>
<path d="M24.3741 16.5796L0.47168 20.5371C0.793885 22.4174 1.29137 24.2768 1.94351 26.0715C9.42124 22.9075 16.8964 19.7436 24.3741 16.5796ZM25.0314 18.4935L2.97972 28.5767C3.78137 30.3039 4.73252 31.9663 5.82286 33.5223C12.2257 28.5145 18.6286 23.504 25.0314 18.4961V18.4935ZM26.1811 20.1922L7.46224 35.6645C8.67115 37.122 10.0193 38.4758 11.473 39.6998C16.3757 33.1982 21.2784 26.6939 26.1811 20.1922ZM27.7302 21.5486L13.6022 41.3441C15.1513 42.4463 16.8113 43.4032 18.5229 44.2098C21.5929 36.6552 24.6602 29.1006 27.7302 21.546V21.5486ZM29.5552 22.4407L21.0077 45.2472C22.7966 45.9033 24.6474 46.4038 26.5213 46.728C27.5317 38.6314 28.5448 30.5347 29.5552 22.4381V22.4407Z" fill="#FF4936"/>
<path d="M0.118571 17.84C0.0463975 16.9971 0.00515528 16.1361 0 15.2803H24.2247C24.2247 15.3399 0.118571 17.84 0.118571 17.84Z" fill="#FF4936"/>
<path d="M64.6549 15.2803C64.6497 16.1361 64.6059 16.9971 64.5286 17.84C56.4967 16.9867 48.4622 16.1335 40.4302 15.2803H64.6549Z" fill="#FF4936"/>
<path d="M40.273 16.5747C47.7507 19.7361 55.231 22.8974 62.7087 26.0614C63.3609 24.2668 63.8584 22.4047 64.1806 20.5193L40.273 16.5747ZM39.6157 18.4886C46.0211 23.4965 52.4265 28.507 58.832 33.5149C59.9223 31.9562 60.8786 30.2861 61.6751 28.564L39.6157 18.4886ZM38.4712 20.1873C43.3764 26.689 48.2791 33.1933 53.1844 39.695C54.633 38.4735 55.9811 37.1171 57.19 35.6596L38.4712 20.1873ZM36.922 21.5437C39.9946 29.0983 43.0671 36.6529 46.1397 44.2075C47.8512 43.4009 49.5035 42.4362 51.0552 41.3418L36.922 21.5463V21.5437ZM35.0971 22.441C36.1127 30.5376 37.1282 38.6343 38.1438 46.7309C40.0178 46.3989 41.8659 45.9062 43.6497 45.2423L35.0945 22.441H35.0971Z" fill="#FF4936"/>
<path d="M35.6694 53.8651C34.7414 53.9429 33.4371 53.9844 32.486 53.9974H32.1638C31.2049 53.9844 29.9058 53.9429 28.9855 53.8651L31.4987 22.7105C31.5658 21.9143 31.54 13.9889 30.7151 13.0734C30.1764 12.4769 30.2847 11.6833 30.4161 10.7678L30.9007 8.82797C31.5709 6.43685 32.0091 3.96273 32.205 1.48084L32.3236 0L32.4421 1.4938C32.6406 3.98089 33.0814 6.45759 33.7542 8.8539L34.2388 10.7627C34.3651 11.6833 34.4785 12.4795 33.9346 13.076C33.1098 13.9914 33.084 21.9221 33.151 22.7131L35.6719 53.8677L35.6694 53.8651Z" fill="#FF4936"/>
</g>
<defs>
<clipPath id="clip0_70_987">
<rect width="166" height="54" fill="white"/>
</clipPath>
</defs>
</svg>
