<svg width="10" height="10" viewBox="0 0 10 10" fill="none" xmlns="http://www.w3.org/2000/svg">
<path d="M4.25 1.75H1.55C1.26997 1.75 1.12996 1.75 1.023 1.8045C0.928924 1.85243 0.852433 1.92892 0.804497 2.023C0.75 2.12996 0.75 2.26997 0.75 2.55V8.45C0.75 8.73003 0.75 8.87004 0.804497 8.977C0.852433 9.07108 0.928924 9.14757 1.023 9.1955C1.12996 9.25 1.26997 9.25 1.55 9.25H7.45C7.73003 9.25 7.87004 9.25 7.977 9.1955C8.07108 9.14757 8.14757 9.07108 8.1955 8.977C8.25 8.87004 8.25 8.73003 8.25 8.45V5.75M6.25 0.75H9.25M9.25 0.75V3.75M9.25 0.75L4.75 5.25" stroke="black" stroke-linecap="round" stroke-linejoin="round"/>
</svg>
